<?xml version="1.0" encoding="iso-8859-1"?>
<!-- Generator: Adobe Illustrator 19.0.0, SVG Export Plug-In . SVG Version: 6.00 Build 0)  -->
<svg version="1.1" id="Capa_1" xmlns="http://www.w3.org/2000/svg" xmlns:xlink="http://www.w3.org/1999/xlink" x="0px" y="0px"
	 viewBox="0 0 512 512" style="enable-background:new 0 0 512 512;" xml:space="preserve">
<path style="fill:#0E61C4;" d="M256,512c-68.38,0-132.667-26.629-181.02-74.98C26.629,388.667,0,324.38,0,256
	S26.629,123.333,74.98,74.98C123.333,26.629,187.62,0,256,0s132.667,26.629,181.02,74.98C485.371,123.333,512,187.62,512,256
	s-26.629,132.667-74.98,181.02C388.667,485.371,324.38,512,256,512z"/>
<path style="fill:#0C4EAD;" d="M437.02,74.98C388.667,26.629,324.38,0,256,0v512c68.38,0,132.667-26.629,181.02-74.98
	C485.371,388.667,512,324.38,512,256S485.371,123.333,437.02,74.98z"/>
<path style="fill:#E4F7FF;" d="M256,30c-60.367,0-117.12,23.508-159.806,66.194S30,195.633,30,256s23.508,117.12,66.194,159.806
	S195.633,482,256,482s117.12-23.508,159.806-66.194S482,316.367,482,256s-23.508-117.12-66.194-159.806S316.367,30,256,30z"/>
<path style="fill:#CBEDFD;" d="M415.806,96.194C373.12,53.508,316.367,30,256,30v452c60.367,0,117.12-23.508,159.806-66.194
	S482,316.367,482,256S458.492,138.88,415.806,96.194z"/>
<rect x="241" y="191" style="fill:#FDDA40;" width="30" height="135"/>
<rect x="256" y="191" style="fill:#FDA916;" width="15" height="135"/>
<g>
	<rect x="241" y="80" style="fill:#7E88FD;" width="30" height="60"/>
	
		<rect x="153.002" y="114.558" transform="matrix(-0.5 -0.866 0.866 -0.5 162.3039 352.8208)" style="fill:#7E88FD;" width="59.999" height="29.999"/>
	
		<rect x="99.56" y="167.998" transform="matrix(-0.866 -0.5 0.5 -0.866 150.2585 406.2587)" style="fill:#7E88FD;" width="59.999" height="29.999"/>
	<rect x="80" y="241" style="fill:#7E88FD;" width="60" height="30"/>
</g>
<g>
	<rect x="372" y="241" style="fill:#6E76E3;" width="60" height="30"/>
	
		<rect x="367.442" y="152.994" transform="matrix(-0.5 -0.866 0.866 -0.5 415.1918 605.6937)" style="fill:#6E76E3;" width="29.999" height="59.999"/>
	
		<rect x="313.994" y="99.56" transform="matrix(-0.866 -0.5 0.5 -0.866 549.1282 406.2601)" style="fill:#6E76E3;" width="29.999" height="59.999"/>
</g>
<path style="fill:#0E61C4;" d="M256,391c-19.299,0-35-15.701-35-35s15.701-35,35-35s35,15.701,35,35S275.299,391,256,391z"/>
<rect x="256" y="80" style="fill:#6E76E3;" width="15" height="60"/>
<path style="fill:#0C4EAD;" d="M256,321v70c19.299,0,35-15.701,35-35S275.299,321,256,321z"/>
<g>
</g>
<g>
</g>
<g>
</g>
<g>
</g>
<g>
</g>
<g>
</g>
<g>
</g>
<g>
</g>
<g>
</g>
<g>
</g>
<g>
</g>
<g>
</g>
<g>
</g>
<g>
</g>
<g>
</g>
</svg>
