<svg id="Capa_1" enable-background="new 0 0 507.958 507.958" height="512" viewBox="0 0 507.958 507.958" width="512" xmlns="http://www.w3.org/2000/svg"><g><g fill="#ccf5fc"><path d="m417.489 130c21.843 0 40.223-17.199 40.739-39.036.421-17.786-10.834-33.055-26.625-38.668-7.995-2.842-13.364-10.368-13.364-18.879 0-13.727 13.552-23.465 26.5-18.906 31.363 11.042 53.837 41.11 53.496 76.278-.426 44.041-36.972 79.211-81.016 79.211h-406.98v-40z"/><path d="m340.323 330c36.304 0 65.645 30.384 63.928 67.058-1.533 32.755-28.115 59.337-60.87 60.87-31.368 1.468-58.135-19.785-65.223-48.683-2.194-8.946-10.199-15.245-19.411-15.245-12.896 0-22.538 12.006-19.507 24.509 11.355 46.829 54.495 81.375 105.194 79.412 53.976-2.091 97.719-45.834 99.81-99.81 2.293-59.211-45.211-108.111-103.921-108.111h-330.084v40z"/><path d="m130.239 250c67.743 0 122.555-56.424 119.908-124.743-2.478-63.981-55.589-115.104-119.616-115.257-35.474-.085-67.423 15.303-89.464 39.781-8.449 9.383-6.118 24.174 4.767 30.573 8.227 4.837 18.663 3.129 25.063-3.95 15.091-16.693 37.108-27.012 61.472-26.376 41.445 1.082 75.551 34.22 77.755 75.621 2.454 46.079-34.33 84.351-79.884 84.351h-120v40z"/></g><path d="m229.522 420.865c-9.268-38.62 49.08-52.622 58.348-14.002 6.008 25.037 29.288 42.292 55.044 41.076 27.507-1.287 51.349-23.812 51.349-51.348 0-35.871-27.411-56.591-53.939-56.591h-330.085c-5.523 0-10-4.477-10-10v-40c0-5.523 4.477-10 10-10h330.084c63.564 0 116.851 53.129 113.913 118.498-2.654 59.051-50.349 107.127-109.415 109.416-55.646 1.537-103.028-35.917-115.299-87.049zm19.436-4.713c10.08 43.418 50.515 73.514 95.088 71.775 48.696-1.886 88.879-42.522 90.204-90.205 1.505-54.142-41.507-97.722-93.926-97.722h-320.085v20h320.084c42.528 0 76.661 36.244 73.917 77.525s-34.744 70.184-70.392 70.392c-35.326.206-67.423-21.92-75.403-56.29-2.957-12.743-22.445-8.218-19.487 4.525zm114.431-256.152c-5.52 0-10 4.49-10 10s4.48 10 10 10c5.51 0 10-4.49 10-10 0-5.511-4.49-10-10-10zm84.884-155.532c-37.727-13.195-57.546 43.472-19.82 56.667 11.285 4.474 19.266 15.487 19.266 28.364 0 16.845-13.655 30.5-30.5 30.5h-157.507c-8.095-78.279-71.844-119.999-129.157-119.999-35.187 0-72.323 15.63-96.919 43.089-26.694 29.8 17.985 69.821 44.678 40.021 13.677-15.268 33.355-23.617 53.792-23.086 34.134.891 62.637 26.747 67.422 59.976h-189.289c-5.523 0-10 4.477-10 10v40c0 5.523 4.477 10 10 10h168.938c-13.167 12.918-30.443 20-48.938 20h-120c-5.523 0-10 4.477-10 10v40c0 5.523 4.477 10 10 10h120c45.975 0 98.917-27.658 120.275-80h67.875c5.51 0 10-4.49 10-10s-4.49-10-10-10h-61.595c1.443-6.376 2.453-13.044 2.977-20h157.448c27.89 0 50.5-22.61 50.5-50.5 0-21.609-13.573-40.048-32.658-47.257-12.5-4.372-5.893-23.26 6.606-18.888 26.885 9.941 46.052 35.805 46.052 66.145 0 38.936-31.564 70.5-70.5 70.5h-8.83c-5.52 0-10 4.49-10 10s4.48 10 10 10h8.83c49.982 0 90.5-40.518 90.5-90.5 0-39.073-24.76-72.361-59.446-85.032zm-428.034 155.532v-20h179.299c-.991 6.971-3.022 13.696-6.028 20zm110 80h-110v-20h110c39.194 0 92.227-30.978 89.87-94.883-1.717-46.529-40.901-83.87-87.479-85.085-26.3-.686-51.718 9.921-69.151 29.667-8.802 9.97-23.783-3.256-14.98-13.226 20.652-23.394 50.66-36.473 81.747-36.473h.261c58.209.139 105.378 45.774 109.648 105.644 3.137 43.988-32.658 114.356-109.916 114.356z"/></g></svg>